Coordinates
version=1
nRows=35
nColumns=24
inDegrees=yes

Units are S.I. units (second, meters, Newtons, ...)
Angles are in degrees.

endheader
time	pelvis_tilt	pelvis_list	pelvis_rotation	pelvis_tx	pelvis_ty	pelvis_tz	hip_flexion_r	hip_adduction_r	hip_rotation_r	knee_angle_r	ankle_angle_r	subtalar_angle_r	mtp_angle_r	hip_flexion_l	hip_adduction_l	hip_rotation_l	knee_angle_l	ankle_angle_l	subtalar_angle_l	mtp_angle_l	lumbar_extension	lumbar_bending	lumbar_rotation
0.00000000	4.84455933	-1.84559258	-0.77772078	0.60102028	1.04559875	-0.02160049	13.24496485	-2.90617367	-6.95037445	-64.21716973	8.30481704	-0.00000082	0.00000000	7.43498579	1.38076320	0.20135362	-16.52374711	7.16924652	0.00000249	0.00000000	-19.54310531	-0.47001089	-4.72635202
0.01000000	4.84455933	-1.84559258	-0.77772078	0.60102028	1.04559875	-0.02160049	14.34610401	-2.90617367	-6.95037445	-63.48023670	9.32658738	-0.00000082	0.00000000	6.39806847	1.38076320	0.20135362	-15.39911204	7.37502594	0.00000249	0.00000000	-19.54310531	-0.47001089	-4.72635202
0.02000000	4.84455933	-1.84559258	-0.77772078	0.60102028	1.04559875	-0.02160049	15.43505565	-2.90617367	-6.95037445	-62.70187037	10.33121394	-0.00000082	0.00000000	5.39783144	1.38076320	0.20135362	-14.34052629	7.59013429	0.00000249	0.00000000	-19.54310531	-0.47001089	-4.72635202
0.03000000	4.84455933	-1.84559258	-0.77772078	0.60102028	1.04559875	-0.02160049	16.50309497	-2.90617367	-6.95037445	-61.82289822	11.29609669	-0.00000082	0.00000000	4.46590196	1.38076320	0.20135362	-13.40937868	7.83026055	0.00000249	0.00000000	-19.54310531	-0.47001089	-4.72635202
0.04000000	4.84455933	-1.84559258	-0.77772078	0.60102028	1.04559875	-0.02160049	17.54158707	-2.90617367	-6.95037445	-60.79427612	12.20117159	-0.00000082	0.00000000	3.62682693	1.38076320	0.20135362	-12.65361798	8.10868410	0.00000249	0.00000000	-19.54310531	-0.47001089	-4.72635202
0.05000000	4.84455933	-1.84559258	-0.77772078	0.60102028	1.04559875	-0.02160049	18.54181075	-2.90617367	-6.95037445	-59.57954153	13.02953630	-0.00000082	0.00000000	2.89544084	1.38076320	0.20135362	-12.10305823	8.43518207	0.00000249	0.00000000	-19.54310531	-0.47001089	-4.72635202
0.06000000	4.84455933	-1.84559258	-0.77772078	0.60102028	1.04559875	-0.02160049	19.49487577	-2.90617367	-6.95037445	-58.15559187	13.76761850	-0.00000082	0.00000000	2.27551203	1.38076320	0.20135362	-11.76702987	8.81536169	0.00000249	0.00000000	-19.54310531	-0.47001089	-4.72635202
0.07000000	4.84455933	-1.84559258	-0.77772078	0.60102028	1.04559875	-0.02160049	20.39176865	-2.90617367	-6.95037445	-56.51194234	14.40497595	-0.00000082	0.00000000	1.75983313	1.38076320	0.20135362	-11.63463427	9.25042724	0.00000249	0.00000000	-19.54310531	-0.47001089	-4.72635202
0.08000000	4.84455933	-1.84559258	-0.77772078	0.60102028	1.04559875	-0.02160049	21.22354627	-2.90617367	-6.95037445	-54.64882220	14.93388775	-0.00000082	0.00000000	1.33169642	1.38076320	0.20135362	-11.67747094	9.73732256	0.00000249	0.00000000	-19.54310531	-0.47001089	-4.72635202
0.09000000	4.84455933	-1.84559258	-0.77772078	0.60102028	1.04559875	-0.02160049	21.98167481	-2.90617367	-6.95037445	-52.57460235	15.34892885	-0.00000082	0.00000000	0.96747479	1.38076320	0.20135362	-11.85432754	10.26914222	0.00000249	0.00000000	-19.54310531	-0.47001089	-4.72635202
0.10000000	4.84455933	-1.84559258	-0.77772078	0.60102028	1.04559875	-0.02160049	22.65848684	-2.90617367	-6.95037445	-50.30309331	15.64670810	-0.00000082	0.00000000	0.63985979	1.38076320	0.20135362	-12.11703250	10.83569300	0.00000249	0.00000000	-19.54310531	-0.47001089	-4.72635202
0.11000000	4.84455933	-1.84559258	-0.77772078	0.60102028	1.04559875	-0.02160049	23.24770614	-2.90617367	-6.95037445	-47.85120870	15.82589908	-0.00000082	0.00000000	0.32123071	1.38076320	0.20135362	-12.41654035	11.42411612	0.00000249	0.00000000	-19.54310531	-0.47001089	-4.72635202
0.12000000	4.84455933	-1.84559258	-0.77772078	0.60102028	1.04559875	-0.02160049	23.74497549	-2.90617367	-6.95037445	-45.23737052	15.88760778	-0.00000082	0.00000000	-0.01333957	1.38076320	0.20135362	-12.70837893	12.01953789	0.00000249	0.00000000	-19.54310531	-0.47001089	-4.72635202
0.13000000	4.84455933	-1.84559258	-0.77772078	0.60102028	1.04559875	-0.02160049	24.14832040	-2.90617367	-6.95037445	-42.48086037	15.83601708	-0.00000082	0.00000000	-0.38381023	1.38076320	0.20135362	-12.95680800	12.60577649	0.00000249	0.00000000	-19.54310531	-0.47001089	-4.72635202
0.14000000	4.84455933	-1.84559258	-0.77772078	0.60102028	1.04559875	-0.02160049	24.45849102	-2.90617367	-6.95037445	-39.60212896	15.67914601	-0.00000082	0.00000000	-0.80381805	1.38076320	0.20135362	-13.13734683	13.16616626	0.00000249	0.00000000	-19.54310531	-0.47001089	-4.72635202
0.15000000	4.84455933	-1.84559258	-0.77772078	0.60102028	1.04559875	-0.02160049	24.67914007	-2.90617367	-6.95037445	-36.62389172	15.42948337	-0.00000082	0.00000000	-1.28024987	1.38076320	0.20135362	-13.23764198	13.68455382	0.00000249	0.00000000	-19.54310531	-0.47001089	-4.72635202
0.16000000	4.84455933	-1.84559258	-0.77772078	0.60102028	1.04559875	-0.02160049	24.81681033	-2.90617367	-6.95037445	-33.57269069	15.10422473	-0.00000082	0.00000000	-1.81360501	1.38076320	0.20135362	-13.25689976	14.14647705	0.00000249	0.00000000	-19.54310531	-0.47001089	-4.72635202
0.17000000	4.84455933	-1.84559258	-0.77772078	0.60102028	1.04559875	-0.02160049	24.88071791	-2.90617367	-6.95037445	-30.48050963	14.72486875	-0.00000082	0.00000000	-2.39892736	1.38076320	0.20135362	-13.20426560	14.54047716	0.00000249	0.00000000	-19.54310531	-0.47001089	-4.72635202
0.18000000	4.84455933	-1.84559258	-0.77772078	0.60102028	1.04559875	-0.02160049	24.88232625	-2.90617367	-6.95037445	-27.38600466	14.31601760	-0.00000082	0.00000000	-3.02706474	1.38076320	0.20135362	-13.09658992	14.85943434	0.00000249	0.00000000	-19.54310531	-0.47001089	-4.72635202
0.19000000	4.84455933	-1.84559258	-0.77772078	0.60102028	1.04559875	-0.02160049	24.83471679	-2.90617367	-6.95037445	-24.33495970	13.90336364	-0.00000082	0.00000000	-3.68603933	1.38076320	0.20135362	-12.95599230	15.10177054	0.00000249	0.00000000	-19.54310531	-0.47001089	-4.72635202
0.20000000	4.84455933	-1.84559258	-0.77772078	0.60102028	1.04559875	-0.02160049	24.75177868	-2.90617367	-6.95037445	-21.37969074	13.51101173	-0.00000082	0.00000000	-4.36236630	1.38076320	0.20135362	-12.80755029	15.27233058	0.00000249	0.00000000	-19.54310531	-0.47001089	-4.72635202
0.21000000	4.84455933	-1.84559258	-0.77772078	0.60102028	1.04559875	-0.02160049	24.64726534	-2.90617367	-6.95037445	-18.57728993	13.15845373	-0.00000082	0.00000000	-5.04221877	1.38076320	0.20135362	-12.67732730	15.38273561	0.00000249	0.00000000	-19.54310531	-0.47001089	-4.72635202
0.22000000	4.84455933	-1.84559258	-0.77772078	0.60102028	1.04559875	-0.02160049	24.53379629	-2.90617367	-6.95037445	-15.98679609	12.85764837	-0.00000082	0.00000000	-5.71238974	1.38076320	0.20135362	-12.59084033	15.45100587	0.00000249	0.00000000	-19.54310531	-0.47001089	-4.72635202
0.23000000	4.84455933	-1.84559258	-0.77772078	0.60102028	1.04559875	-0.02160049	24.42191053	-2.90617367	-6.95037445	-13.66557048	12.61073414	-0.00000082	0.00000000	-6.36103786	1.38076320	0.20135362	-12.57197447	15.50028132	0.00000249	0.00000000	-19.54310531	-0.47001089	-4.72635202
0.24000000	4.84455933	-1.84559258	-0.77772078	0.60102028	1.04559875	-0.02160049	24.31929251	-2.90617367	-6.95037445	-11.66530833	12.40888816	-0.00000082	0.00000000	-6.97822001	1.38076320	0.20135362	-12.64228652	15.55654148	0.00000249	0.00000000	-19.54310531	-0.47001089	-4.72635202
0.25000000	4.84455933	-1.84559258	-0.77772078	0.60102028	1.04559875	-0.02160049	24.23028438	-2.90617367	-6.95037445	-10.02819826	12.23272655	-0.00000082	0.00000000	-7.55621331	1.38076320	0.20135362	-12.82060901	15.64534002	0.00000249	0.00000000	-19.54310531	-0.47001089	-4.72635202
0.26000000	4.84455933	-1.84559258	-0.77772078	0.60102028	1.04559875	-0.02160049	24.15576348	-2.90617367	-6.95037445	-8.78373137	12.05442722	-0.00000082	0.00000000	-8.08961886	1.38076320	0.20135362	-13.12286474	15.78772026	0.00000249	0.00000000	-19.54310531	-0.47001089	-4.72635202
0.27000000	4.84455933	-1.84559258	-0.77772078	0.60102028	1.04559875	-0.02160049	24.09340468	-2.90617367	-6.95037445	-7.94655980	11.84147034	-0.00000082	0.00000000	-8.57523096	1.38076320	0.20135362	-13.56202196	15.99564520	0.00000249	0.00000000	-19.54310531	-0.47001089	-4.72635202
0.28000000	4.84455933	-1.84559258	-0.77772078	0.60102028	1.04559875	-0.02160049	24.03827624	-2.90617367	-6.95037445	-7.51563002	11.56158259	-0.00000082	0.00000000	-9.01165565	1.38076320	0.20135362	-14.14814954	16.26743635	0.00000249	0.00000000	-19.54310531	-0.47001089	-4.72635202
0.29000000	4.84455933	-1.84559258	-0.77772078	0.60102028	1.04559875	-0.02160049	23.98365119	-2.90617367	-6.95037445	-7.47460826	11.18819903	-0.00000082	0.00000000	-9.39867909	1.38076320	0.20135362	-14.88856023	16.58384090	0.00000249	0.00000000	-19.54310531	-0.47001089	-4.72635202
0.30000000	4.84455933	-1.84559258	-0.77772078	0.60102028	1.04559875	-0.02160049	23.92187551	-2.90617367	-6.95037445	-7.79342092	10.70558136	-0.00000082	0.00000000	-9.73641615	1.38076320	0.20135362	-15.78804851	16.90540917	0.00000249	0.00000000	-19.54310531	-0.47001089	-4.72635202
0.31000000	4.84455933	-1.84559258	-0.77772078	0.60102028	1.04559875	-0.02160049	23.84513284	-2.90617367	-6.95037445	-8.43059472	10.11270355	-0.00000082	0.00000000	-10.02430820	1.38076320	0.20135362	-16.84923470	17.17183919	0.00000249	0.00000000	-19.54310531	-0.47001089	-4.72635202
0.32000000	4.84455933	-1.84559258	-0.77772078	0.60102028	1.04559875	-0.02160049	23.74598491	-2.90617367	-6.95037445	-9.33602515	9.42515588	-0.00000082	0.00000000	-10.26007557	1.38076320	0.20135362	-18.07301788	17.30381840	0.00000249	0.00000000	-19.54310531	-0.47001089	-4.72635202
0.33000000	4.84455933	-1.84559258	-0.77772078	0.60102028	1.04559875	-0.02160049	23.61763772	-2.90617367	-6.95037445	-10.45382865	8.67461565	-0.00000082	0.00000000	-10.43875724	1.38076320	0.20135362	-19.45911914	17.20766071	0.00000249	0.00000000	-19.54310531	-0.47001089	-4.72635202
0.34000000	4.84455933	-1.84559258	-0.77772078	0.60102028	1.04559875	-0.02160049	23.45396368	-2.90617367	-6.95037445	-11.72502552	7.90583801	-0.00000082	0.00000000	-10.55198061	1.38076320	0.20135362	-21.00666665	16.78271507	0.00000249	0.00000000	-19.54310531	-0.47001089	-4.72635202
